<svg width="16" height="16" viewBox="0 0 16 16" fill="none" xmlns="http://www.w3.org/2000/svg">
<path d="M6 1L5.435 3.258C5.1987 3.3341 4.9684 3.42769 4.746 3.538L2.758 2.343L1.344 3.758L2.539 5.752C2.42717 5.97296 2.3319 6.20192 2.254 6.437L0 7V9L2.258 9.564C2.33382 9.79993 2.42708 10.0299 2.537 10.252L1.344 12.242L2.758 13.656L4.752 12.461C4.97296 12.5728 5.20192 12.6681 5.437 12.746L6 15H8L8.564 12.742C8.79996 12.6659 9.02993 12.5723 9.252 12.462L11.242 13.656L12.656 12.242L11.461 10.248C11.5728 10.027 11.6681 9.79808 11.746 9.563L14 9V7L11.742 6.436C11.6659 6.20004 11.5723 5.97007 11.462 5.748L12.656 3.758L11.242 2.344L9.248 3.539C9.02672 3.42712 8.79742 3.33186 8.562 3.254L8 1H6ZM7 6C7.53043 6 8.03914 6.21071 8.41421 6.58579C8.78929 6.96086 9 7.46957 9 8C9 8.53043 8.78929 9.03914 8.41421 9.41421C8.03914 9.78929 7.53043 10 7 10C6.46957 10 5.96086 9.78929 5.58579 9.41421C5.21071 9.03914 5 8.53043 5 8C5 7.46957 5.21071 6.96086 5.58579 6.58579C5.96086 6.21071 6.46957 6 7 6Z" fill="#E0E0E0"/>
</svg>
