<svg width="16" height="16" viewBox="0 0 16 16" fill="none" xmlns="http://www.w3.org/2000/svg">
<path fill-rule="evenodd" clip-rule="evenodd" d="M3.15462 3C1.96466 3 1 3.89543 1 5V11C1 12.1046 1.96466 13 3.15462 13H11.207C12.0148 13 12.7548 12.5805 13.1237 11.9135L14.7621 8.95117C15.0909 8.35686 15.0782 7.64944 14.7284 7.0656L12.9082 4.02787C12.528 3.39341 11.8073 3 11.0252 3H3.15462ZM11.2671 9.5C12.1777 9.5 12.9158 8.82843 12.9158 8C12.9158 7.17157 12.1777 6.5 11.2671 6.5C10.3566 6.5 9.61849 7.17157 9.61849 8C9.61849 8.82843 10.3566 9.5 11.2671 9.5Z" fill="#E0E0E0"/>
</svg>
