<svg xmlns="http://www.w3.org/2000/svg" width="100" height="36" viewBox="0 0 100 36" fill="none">
<path d="M49.1569 11.1564C47.3047 11.1564 45.8564 11.7395 44.8105 12.9057C43.7638 14.0724 43.2415 15.5866 43.2415 17.4509C43.2415 19.6397 43.7762 21.299 44.8456 22.4293C45.9169 23.5594 47.3234 24.1238 49.0672 24.1238C50.0049 24.1238 50.8372 24.0429 51.5645 23.8804C52.2925 23.7186 52.7764 23.5526 53.0172 23.3845L53.0894 17.7406C53.0894 17.4126 52.2237 17.2635 51.2528 17.2469C50.2818 17.2319 49.1706 17.4344 49.1706 17.4344V19.3296H50.288L50.2756 20.1744C50.2756 20.4873 49.9654 20.6444 49.3466 20.6444C48.7271 20.6444 48.1799 20.3822 47.7053 19.859C47.2295 19.3352 46.9929 18.5694 46.9929 17.5605C46.9929 16.5494 47.2241 15.8041 47.6871 15.323C48.1491 14.8425 48.7548 14.6014 49.4996 14.6014C49.8126 14.6014 50.1366 14.6518 50.4735 14.7549C50.8106 14.857 51.0356 14.9526 51.1505 15.0423C51.2644 15.1344 51.3727 15.1782 51.4751 15.1782C51.577 15.1782 51.7421 15.0588 51.9704 14.8178C52.199 14.5774 52.4038 14.213 52.5845 13.7272C52.7644 13.2388 52.8545 12.8645 52.8545 12.599C52.8545 12.3356 52.8486 12.154 52.8369 12.0582C52.5843 11.7818 52.1182 11.5625 51.4383 11.3996C50.7596 11.2371 49.9987 11.1565 49.1571 11.1565L49.1569 11.1564ZM60.2224 11.1564C58.5208 11.1564 57.1317 11.7035 56.0557 12.7969C54.9799 13.8917 54.4422 15.4995 54.4422 17.6228C54.4422 19.7449 54.974 21.3592 56.0371 22.4654C57.1017 23.5708 58.4789 24.1235 60.168 24.1235C61.8578 24.1235 63.2368 23.5921 64.3074 22.5291C65.3781 21.4639 65.9129 19.8406 65.9129 17.6581C65.9129 15.4773 65.3902 13.8468 64.343 12.7711C63.2977 11.6934 61.9237 11.1562 60.2224 11.1562V11.1564ZM84.1433 11.1564C82.4412 11.1564 81.0529 11.7035 79.9759 12.7969C78.9003 13.8917 78.3625 15.4995 78.3625 17.6228C78.3625 19.7449 78.8945 21.3592 79.959 22.4654C81.0226 23.5708 82.3989 24.1235 84.0886 24.1235C85.7778 24.1235 87.1578 23.5921 88.228 22.5291C89.2985 21.4639 89.8335 19.8406 89.8335 17.6581C89.8335 15.4773 89.3108 13.8468 88.2645 12.7711C87.2179 11.6934 85.8448 11.1562 84.1433 11.1562V11.1564ZM68.317 11.3178C68.0758 11.3178 67.8807 11.4058 67.7307 11.5791C67.5797 11.7551 67.5049 11.9925 67.5049 12.2933V23.1141C67.5049 23.6676 67.8122 23.9435 68.425 23.9435H71.5085C75.2842 23.9435 77.1728 21.7315 77.1728 17.3064C77.1728 15.2379 76.6764 13.7236 75.6835 12.7619C74.6924 11.7999 73.2406 11.3177 71.3291 11.3177L68.317 11.3178ZM90.8198 11.3178C90.6152 11.3178 90.4709 11.5956 90.387 12.1487C90.3509 12.4131 90.3336 12.6843 90.3336 12.9597C90.3336 13.2367 90.3509 13.5069 90.387 13.7708C90.4709 14.3253 90.6152 14.6013 90.8198 14.6013H92.9838V23.6562C92.9838 23.8952 93.5799 24.0164 94.7699 24.0164C95.9608 24.0164 96.5554 23.8952 96.5554 23.6562V14.6013H98.6657C98.8701 14.6013 99.0138 14.3253 99.099 13.7708C99.1343 13.5069 99.1526 13.2367 99.1526 12.9597C99.1526 12.6843 99.1343 12.4131 99.099 12.1487C99.0139 11.5956 98.8701 11.3178 98.6657 11.3178H90.8198ZM60.1758 14.6195C60.7534 14.6195 61.2375 14.8778 61.6278 15.3941C62.0185 15.9111 62.2145 16.6514 62.2145 17.613C62.2145 18.5755 62.0247 19.3149 61.646 19.8314C61.2672 20.3498 60.7739 20.6081 60.1669 20.6081C59.5595 20.6081 59.07 20.3528 58.6972 19.8405C58.3239 19.3298 58.1376 18.5969 58.1376 17.6395C58.1376 16.6842 58.3335 15.9418 58.7235 15.4128C59.1155 14.8843 59.5989 14.6193 60.1758 14.6193L60.1758 14.6195ZM84.0967 14.6195C84.6744 14.6195 85.1578 14.8778 85.5487 15.3941C85.9394 15.9111 86.135 16.6514 86.135 17.613C86.135 18.5755 85.9454 19.3149 85.5665 19.8314C85.1882 20.3498 84.6946 20.6081 84.0874 20.6081C83.48 20.6081 82.99 20.3528 82.6177 19.8405C82.2455 19.3298 82.0587 18.5969 82.0587 17.6395C82.0587 16.6842 82.2538 15.9418 82.6436 15.4128C83.035 14.8843 83.5196 14.6193 84.0967 14.6193L84.0967 14.6195ZM70.9669 14.7444H71.1473C71.9168 14.7444 72.4792 14.9204 72.8343 15.2691C73.1877 15.6169 73.3654 16.3657 73.3654 17.5146C73.3654 18.6631 73.1955 19.483 72.8519 19.9755C72.5091 20.4685 72.0077 20.7158 71.3457 20.7158C71.1658 20.7158 71.0572 20.6825 71.0215 20.6162C70.9854 20.5496 70.9668 20.3909 70.9668 20.1389L70.9669 14.7444Z" fill="white"/>
<path d="M15.0328 0.847168C13.4059 1.20885 11.7965 1.71227 10.2876 2.47174C10.3221 3.80405 10.4083 5.08065 10.5829 6.37737C9.99689 6.75279 9.3811 7.07504 8.83375 7.51448C8.27764 7.9423 7.70957 8.35174 7.20607 8.85208C6.20011 8.18671 5.13548 7.56125 4.03866 7.00924C2.85635 8.28169 1.75073 9.65515 0.847656 11.1919C1.52708 12.2911 2.23641 13.3213 3.0023 14.2989H3.02361V23.731C3.04086 23.7311 3.05824 23.7319 3.07534 23.7335L8.85775 24.2909C9.16064 24.3201 9.39798 24.564 9.41906 24.8675L9.59741 27.42L14.6414 27.78L14.9888 25.4241C15.0338 25.1186 15.296 24.8923 15.6049 24.8923H21.7055C22.0143 24.8923 22.2764 25.1186 22.3215 25.4241L22.6689 27.78L27.7131 27.42L27.8912 24.8675C27.9124 24.564 28.1496 24.3203 28.4525 24.2909L34.2326 23.7335C34.2497 23.7319 34.2669 23.7312 34.2842 23.731V22.9783L34.2866 22.9775V14.2989H34.308C35.074 13.3212 35.7828 12.291 36.4626 11.1919C35.5598 9.65504 34.4537 8.28159 33.2714 7.00924C32.1749 7.56119 31.1097 8.18662 30.1038 8.85208C29.6004 8.35174 29.0334 7.94231 28.4765 7.51448C27.9294 7.075 27.3127 6.75275 26.7278 6.37737C26.9019 5.08065 26.9882 3.80405 27.0228 2.47174C25.5138 1.71221 23.9045 1.20882 22.2768 0.847168C21.6269 1.93944 21.0326 3.12202 20.515 4.27838C19.9013 4.17582 19.2846 4.1378 18.6672 4.13045V4.12962C18.6629 4.12962 18.6589 4.13045 18.6552 4.13045C18.6514 4.13045 18.6473 4.12962 18.6434 4.12962V4.13045C18.0249 4.13779 17.4087 4.17581 16.7948 4.27838C16.2775 3.12213 15.6837 1.93944 15.0328 0.847168ZM10.4579 14.6448C12.3826 14.6448 13.9427 16.2037 13.9427 18.1278C13.9427 20.0531 12.3826 21.6128 10.4579 21.6128C8.53407 21.6128 6.97372 20.0531 6.97372 18.1278C6.97372 16.2037 8.53417 14.6448 10.4579 14.6448ZM26.8519 14.6448C28.7756 14.6448 30.3357 16.2037 30.3357 18.1278C30.3357 20.0531 28.7756 21.6128 26.8519 21.6128C24.9269 21.6128 23.3671 20.0531 23.3671 18.1278C23.3671 16.2037 24.9269 14.6448 26.8519 14.6448ZM18.6542 16.683C19.2738 16.683 19.777 17.1401 19.777 17.7024V20.9104C19.777 21.4732 19.2737 21.9297 18.6542 21.9297C18.0347 21.9297 17.5326 21.4732 17.5326 20.9104V17.7024C17.5326 17.1401 18.0347 16.683 18.6542 16.683ZM3.01368 24.9786C3.01608 25.5374 3.0232 26.1494 3.0232 26.2713C3.0232 31.7626 9.9894 34.402 18.6441 34.4324H18.6654C27.3201 34.4021 34.284 31.7626 34.284 26.2713C34.284 26.1472 34.2915 25.5377 34.2941 24.9786L29.0966 25.4799L28.9174 28.0461C28.8958 28.3554 28.6499 28.6015 28.3406 28.6238L22.1812 29.0632C22.1662 29.0643 22.1512 29.0649 22.1363 29.0649C21.8302 29.0649 21.5662 28.8401 21.521 28.5327L21.1678 26.1374H16.142L15.7889 28.5327C15.7414 28.8551 15.4533 29.087 15.1286 29.0632L8.96926 28.6238C8.65998 28.6015 8.414 28.3554 8.39243 28.0461L8.21346 25.4799L3.01389 24.9786H3.01368Z" fill="white"/>
<path d="M15.0328 0.847168C13.4059 1.20885 11.7965 1.71227 10.2876 2.47174C10.3221 3.80405 10.4083 5.08065 10.5829 6.37737C9.99689 6.75279 9.3811 7.07504 8.83375 7.51448C8.27764 7.9423 7.70957 8.35174 7.20607 8.85208C6.20011 8.18671 5.13548 7.56125 4.03866 7.00924C2.85635 8.28169 1.75073 9.65515 0.847656 11.1919C1.52708 12.2911 2.23641 13.3213 3.0023 14.2989H3.02361V23.731C3.04086 23.7311 3.05824 23.7319 3.07534 23.7335L8.85775 24.2909C9.16064 24.3201 9.39798 24.564 9.41906 24.8675L9.59741 27.42L14.6414 27.78L14.9888 25.4241C15.0338 25.1186 15.296 24.8923 15.6049 24.8923H21.7055C22.0143 24.8923 22.2764 25.1186 22.3215 25.4241L22.6689 27.78L27.7131 27.42L27.8912 24.8675C27.9124 24.564 28.1496 24.3203 28.4525 24.2909L34.2326 23.7335C34.2497 23.7319 34.2669 23.7312 34.2842 23.731V22.9783L34.2866 22.9775V14.2989H34.308C35.074 13.3212 35.7828 12.291 36.4626 11.1919C35.5598 9.65504 34.4537 8.28159 33.2714 7.00924C32.1749 7.56119 31.1097 8.18662 30.1038 8.85208C29.6004 8.35174 29.0334 7.94231 28.4765 7.51448C27.9294 7.075 27.3127 6.75275 26.7278 6.37737C26.9019 5.08065 26.9882 3.80405 27.0228 2.47174C25.5138 1.71221 23.9045 1.20882 22.2768 0.847168C21.6269 1.93944 21.0326 3.12202 20.515 4.27838C19.9013 4.17582 19.2846 4.1378 18.6672 4.13045V4.12962C18.6629 4.12962 18.6589 4.13045 18.6552 4.13045C18.6514 4.13045 18.6473 4.12962 18.6434 4.12962V4.13045C18.0249 4.13779 17.4087 4.17581 16.7948 4.27838C16.2775 3.12213 15.6837 1.93944 15.0328 0.847168ZM10.4579 14.6448C12.3826 14.6448 13.9427 16.2037 13.9427 18.1278C13.9427 20.0531 12.3826 21.6128 10.4579 21.6128C8.53407 21.6128 6.97372 20.0531 6.97372 18.1278C6.97372 16.2037 8.53417 14.6448 10.4579 14.6448ZM26.8519 14.6448C28.7756 14.6448 30.3357 16.2037 30.3357 18.1278C30.3357 20.0531 28.7756 21.6128 26.8519 21.6128C24.9269 21.6128 23.3671 20.0531 23.3671 18.1278C23.3671 16.2037 24.9269 14.6448 26.8519 14.6448ZM18.6542 16.683C19.2738 16.683 19.777 17.1401 19.777 17.7024V20.9104C19.777 21.4732 19.2737 21.9297 18.6542 21.9297C18.0347 21.9297 17.5326 21.4732 17.5326 20.9104V17.7024C17.5326 17.1401 18.0347 16.683 18.6542 16.683ZM3.01368 24.9786C3.01608 25.5374 3.0232 26.1494 3.0232 26.2713C3.0232 31.7626 9.9894 34.402 18.6441 34.4324H18.6654C27.3201 34.4021 34.284 31.7626 34.284 26.2713C34.284 26.1472 34.2915 25.5377 34.2941 24.9786L29.0966 25.4799L28.9174 28.0461C28.8958 28.3554 28.6499 28.6015 28.3406 28.6238L22.1812 29.0632C22.1662 29.0643 22.1512 29.0649 22.1363 29.0649C21.8302 29.0649 21.5662 28.8401 21.521 28.5327L21.1678 26.1374H16.142L15.7889 28.5327C15.7414 28.8551 15.4533 29.087 15.1286 29.0632L8.96926 28.6238C8.65998 28.6015 8.414 28.3554 8.39243 28.0461L8.21346 25.4799L3.01389 24.9786H3.01368Z" fill="white"/>
<path d="M10.7912 16.022C9.51376 16.022 8.47827 17.058 8.47827 18.3351C8.47827 19.6122 9.5138 20.6472 10.7912 20.6472C12.0693 20.6472 13.1043 19.6122 13.1043 18.3351C13.1043 17.0581 12.0692 16.022 10.7912 16.022ZM26.5179 16.022C25.2408 16.022 24.206 17.058 24.206 18.3351C24.206 19.6122 25.2408 20.6472 26.5179 20.6472C27.7963 20.6472 28.8308 19.6122 28.8308 18.3351C28.8308 17.0581 27.7962 16.022 26.5179 16.022Z" fill="white"/>
</svg>
